name analog
datacolumns 19
datarows 42
range 0.0 0.0205
endheader
time	ground_force_vx	ground_force_vy	ground_force_vz	ground_force_px	ground_force_py	ground_force_pz	l_ground_force_vx	l_ground_force_vy	l_ground_force_vz	l_ground_force_px	l_ground_force_py	l_ground_force_pz	ground_torque_x	ground_torque_y	ground_torque_z	l_ground_torque_x	l_ground_torque_y	l_ground_torque_z
0.0	-0.0	-0.0	-0.0	1.5807855129241943	47.55276870727539	-339.1798400878906	-3.035083770751953	-47.813594818115234	-277.3763427734375	-0.0	-0.0	-0.0	-0.0	-0.0	-0.0	67575.640625	-20029.662109375	845.9539184570312
0.0005	-0.0	-0.0	-0.0	1.7126919031143188	47.18210220336914	-339.3773193359375	-3.104877471923828	-48.23013305664063	-276.00604248046875	-0.0	-0.0	-0.0	-0.0	-0.0	-0.0	67517.640625	-19788.884765625	761.1658325195312
0.001	-0.0	-0.0	-0.0	1.598299264907837	47.44958114624024	-339.8570861816406	-3.022946834564209	-47.93373489379883	-276.3309020996094	-0.0	-0.0	-0.0	-0.0	-0.0	-0.0	67548.921875	-20075.361328125	784.3367309570312
0.0015	-0.0	-0.0	-0.0	1.6703388690948486	47.43440628051758	-338.79718017578125	-3.0161666870117188	-48.49971771240234	-276.80615234375	-0.0	-0.0	-0.0	-0.0	-0.0	-0.0	67683.8203125	-20144.990234375	905.1212158203124
0.002	-0.0	-0.0	-0.0	1.3950380086898804	47.55556488037109	-338.2183837890625	-2.9593827724456787	-48.02225112915039	-276.2067565917969	-0.0	-0.0	-0.0	-0.0	-0.0	-0.0	67308.375	-20104.73046875	837.642822265625
0.0025	-0.0	-0.0	-0.0	1.5163328647613523	47.40933990478516	-337.3186950683594	-3.097545862197876	-48.14262008666992	-277.7987060546875	-0.0	-0.0	-0.0	-0.0	-0.0	-0.0	67617.0234375	-20132.958984375	891.9971313476562
0.003	-0.0	-0.0	-0.0	1.630076289176941	47.66026306152344	-339.05181884765625	-3.072819709777832	-48.3364486694336	-276.9066162109375	-0.0	-0.0	-0.0	-0.0	-0.0	-0.0	67722.4453125	-20147.9765625	867.2339477539062
0.0035	-0.0	-0.0	-0.0	1.3550331592559814	47.563114166259766	-337.99322509765625	-3.097153425216675	-47.90235900878906	-278.461181640625	-0.0	-0.0	-0.0	-0.0	-0.0	-0.0	67633.6015625	-20207.04296875	899.632080078125
0.004	-0.0	-0.0	-0.0	1.061922907829285	47.47393035888672	-339.1477966308594	-2.9110357761383057	-48.26355743408203	-276.2099914550781	-0.0	-0.0	-0.0	-0.0	-0.0	-0.0	67604.078125	-20244.69140625	999.7388305664062
0.0045000000000000005	-0.0	-0.0	-0.0	1.240215539932251	47.43254470825195	-338.34637451171875	-3.1210851669311523	-48.36818313598633	-277.512451171875	-0.0	-0.0	-0.0	-0.0	-0.0	-0.0	67808.8046875	-20144.998046875	953.6264038085938
0.005	-0.0	-0.0	-0.0	1.1687313318252563	47.21539688110352	-337.99322509765625	-2.9597859382629395	-48.42501449584961	-278.08453369140625	-0.0	-0.0	-0.0	-0.0	-0.0	-0.0	67920.265625	-20236.392578125	1015.7940673828124
0.0055	-0.0	-0.0	-0.0	1.6294174194335938	47.5537223815918	-336.8038330078125	-2.8711307048797607	-48.19981002807617	-278.5897521972656	-0.0	-0.0	-0.0	-0.0	-0.0	-0.0	67734.1484375	-20236.828125	964.6286010742188
0.006	-0.0	-0.0	-0.0	1.0141501426696775	47.28120803833008	-337.2304382324219	-2.8387451171875	-48.4648551940918	-278.7168884277344	-0.0	-0.0	-0.0	-0.0	-0.0	-0.0	68072.5703125	-20229.41015625	934.9202880859376
0.006500000000000001	-0.0	-0.0	-0.0	1.258503556251526	47.42162704467773	-336.6183166503906	-2.767706871032715	-48.16769409179688	-279.2281188964844	-0.0	-0.0	-0.0	-0.0	-0.0	-0.0	67954.9609375	-20368.697265625	997.3291015625
0.007	-0.0	-0.0	-0.0	1.351756572723389	47.23911285400391	-337.363525390625	-3.320528984069824	-48.52102279663086	-278.8087158203125	-0.0	-0.0	-0.0	-0.0	-0.0	-0.0	67866.3984375	-20436.25	897.0090942382812
0.0075	-0.0	-0.0	-0.0	1.328211784362793	47.262203216552734	-337.60064697265625	-2.871389865875244	-48.69775390625	-279.67047119140625	-0.0	-0.0	-0.0	-0.0	-0.0	-0.0	67967.171875	-20475.474609375	900.4261474609375
0.008	-0.0	-0.0	-0.0	1.271938681602478	47.027774810791016	-336.0452575683594	-2.8293514251708984	-48.54436874389648	-280.0743713378906	-0.0	-0.0	-0.0	-0.0	-0.0	-0.0	68032.0625	-20488.48046875	986.4409790039062
0.0085	-0.0	-0.0	-0.0	1.39421808719635	47.33847427368164	-337.1961364746094	-2.9739081859588623	-48.62317657470703	-278.365234375	-0.0	-0.0	-0.0	-0.0	-0.0	-0.0	68069.9296875	-20503.203125	942.550537109375
0.009000000000000001	-0.0	-0.0	-0.0	1.060023307800293	46.915802001953125	-336.39361572265625	-2.9274559020996094	-48.86484146118164	-279.1151123046875	-0.0	-0.0	-0.0	-0.0	-0.0	-0.0	68118.203125	-20268.0390625	956.7113647460938
0.0095	-0.0	-0.0	-0.0	1.3048630952835083	47.172584533691406	-336.8018493652344	-2.694209337234497	-48.53428649902344	-280.3687744140625	-0.0	-0.0	-0.0	-0.0	-0.0	-0.0	68240.1171875	-20341.267578125	975.6661376953124
0.01	-0.0	-0.0	-0.0	1.4607036113739014	47.205810546875	-336.2700500488281	-2.739965915679932	-48.8519172668457	-279.8900146484375	-0.0	-0.0	-0.0	-0.0	-0.0	-0.0	68257.34375	-20557.041015625	956.9127807617188
0.0105	-0.0	-0.0	-0.0	1.0034335851669312	47.13869094848633	-337.0212097167969	-2.75003433227539	-48.852176666259766	-280.1902160644531	-0.0	-0.0	-0.0	-0.0	-0.0	-0.0	68166.9921875	-20535.873046875	1005.9291381835938
0.011	-0.0	-0.0	-0.0	1.1372872591018677	47.08308792114258	-336.6685791015625	-3.1589393615722656	-48.78649520874024	-279.84814453125	-0.0	-0.0	-0.0	-0.0	-0.0	-0.0	68154.09375	-20630.47265625	1042.208984375
0.0115	-0.0	-0.0	-0.0	1.3602359294891355	46.82699966430664	-336.1399230957031	-2.972252368927002	-48.553749084472656	-279.9772644042969	-0.0	-0.0	-0.0	-0.0	-0.0	-0.0	68257.6015625	-20766.123046875	1053.458984375
0.012	-0.0	-0.0	-0.0	0.992929220199585	46.92777633666992	-337.020751953125	-2.9165735244750977	-48.9632682800293	-280.7200927734375	-0.0	-0.0	-0.0	-0.0	-0.0	-0.0	68297.3125	-20610.134765625	1038.4703369140625
0.0125	-0.0	-0.0	-0.0	1.5400564670562744	46.84740829467773	-337.286865234375	-2.805505752563477	-49.15091323852539	-280.97955322265625	-0.0	-0.0	-0.0	-0.0	-0.0	-0.0	68282.84375	-20734.904296875	1071.9749755859375
0.013000000000000001	-0.0	-0.0	-0.0	1.3958990573883057	46.98371505737305	-336.838623046875	-2.716707944869995	-48.87507629394531	-279.5836181640625	-0.0	-0.0	-0.0	-0.0	-0.0	-0.0	68283.2109375	-20722.958984375	1038.80712890625
0.0135	-0.0	-0.0	-0.0	1.104305624961853	47.17161560058594	-336.05584716796875	-2.98279881477356	-48.91887283325195	-280.4552307128906	-0.0	-0.0	-0.0	-0.0	-0.0	-0.0	68105.1875	-20621.025390625	1023.6946411132812
0.014	-0.0	-0.0	-0.0	0.8705633282661438	46.827266693115234	-335.7401733398437	-2.894033193588257	-48.930213928222656	-279.7565002441406	-0.0	-0.0	-0.0	-0.0	-0.0	-0.0	68418.484375	-20652.4453125	1019.8901977539062
0.0145	-0.0	-0.0	-0.0	1.150925874710083	46.53861618041992	-335.8741455078125	-2.6179418563842773	-48.675079345703125	-279.9730834960937	-0.0	-0.0	-0.0	-0.0	-0.0	-0.0	68379.65625	-20644.642578125	1109.055908203125
0.015	-0.0	-0.0	-0.0	1.350881576538086	46.89530563354492	-335.2181396484375	-2.6397438049316406	-48.77505874633789	-279.7176208496094	-0.0	-0.0	-0.0	-0.0	-0.0	-0.0	68393.9296875	-20609.716796875	1068.87109375
0.0155	-0.0	-0.0	-0.0	1.138657808303833	46.81452178955078	-336.0410461425781	-2.707223653793335	-48.72006607055664	-280.28448486328125	-0.0	-0.0	-0.0	-0.0	-0.0	-0.0	68200.25	-20549.123046875	1049.509765625
0.016	-0.0	-0.0	-0.0	1.015423059463501	46.895694732666016	-335.0534362792969	-2.86006760597229	-48.82957458496094	-281.8979797363281	-0.0	-0.0	-0.0	-0.0	-0.0	-0.0	68209.9375	-20940.16796875	1142.460693359375
0.0165	-0.0	-0.0	-0.0	1.070526123046875	46.63608932495117	-335.5513000488281	-2.893718719482422	-48.677696228027344	-280.3195495605469	-0.0	-0.0	-0.0	-0.0	-0.0	-0.0	68486.984375	-20756.345703125	1071.865966796875
0.017	-0.0	-0.0	-0.0	1.0570188760757446	47.03386306762695	-336.25592041015625	-2.9951043128967285	-48.71989440917969	-280.9339294433594	-0.0	-0.0	-0.0	-0.0	-0.0	-0.0	68398.5	-20906.107421875	1126.8145751953125
0.0175	-0.0	-0.0	-0.0	1.180354356765747	46.97865676879883	-336.4447021484375	-2.619426012039185	-48.68610763549805	-280.1845092773437	-0.0	-0.0	-0.0	-0.0	-0.0	-0.0	68609.65625	-20769.25390625	1056.35693359375
0.018000000000000002	-0.0	-0.0	-0.0	1.084327220916748	46.57416915893555	-335.33038330078125	-2.729167222976685	-48.75357055664063	-279.10565185546875	-0.0	-0.0	-0.0	-0.0	-0.0	-0.0	68383.3828125	-20640.498046875	1064.924072265625
0.0185	-0.0	-0.0	-0.0	1.1316083669662476	47.01240921020508	-335.4403686523437	-2.668700218200684	-48.76091766357422	-279.7228698730469	-0.0	-0.0	-0.0	-0.0	-0.0	-0.0	68511.8515625	-20915.74609375	980.455078125
0.019	-0.0	-0.0	-0.0	1.111079454421997	46.9231071472168	-336.3075866699219	-2.940896987915039	-48.814239501953125	-280.5027770996094	-0.0	-0.0	-0.0	-0.0	-0.0	-0.0	68321.7265625	-20666.125	998.5816040039062
0.0195	-0.0	-0.0	-0.0	1.1050807237625122	46.882591247558594	-335.4637451171875	-2.8933181762695312	-49.05252456665039	-280.1804504394531	-0.0	-0.0	-0.0	-0.0	-0.0	-0.0	68212.8203125	-20869.70703125	1124.1318359375
0.02	-0.0	-0.0	-0.0	1.4473564624786377	47.14998626708984	-335.10986328125	-2.899713516235352	-48.733341217041016	-280.8778686523437	-0.0	-0.0	-0.0	-0.0	-0.0	-0.0	68393.8515625	-20901.330078125	1099.201416015625
0.0205	-0.0	-0.0	-0.0	1.16489839553833	46.4516716003418	-335.1882019042969	-2.989675760269165	-48.62494659423828	-280.5831604003906	-0.0	-0.0	-0.0	-0.0	-0.0	-0.0	68443.34375	-21013.6015625	975.884033203125
